<svg id="Layer_1" data-name="Layer 1" xmlns="http://www.w3.org/2000/svg" width="323.11" height="89.78" viewBox="0 0 323.11 89.78"><defs><style>.cls-1{fill:#b8ada8;}.cls-2{fill:#b7aca7;}.cls-3{fill:#b7ada8;}</style></defs><path class="cls-1" d="M37.21,30.81c0-2.6.06-8.3,0-18C40.08,18,43.2,21,48,20.92s7.59-3.16,10.75-6.85c0,8.46,0,14,0,16.74a4.41,4.41,0,0,1,0,.75c-.39,4.11-4.43,6.62-4.77,6.82a11.21,11.21,0,0,1-6.22,1.5,11.22,11.22,0,0,1-5.81-1.54c-.34-.21-4.33-2.72-4.7-6.78A6,6,0,0,1,37.21,30.81Z"/><path class="cls-1" d="M15.64,49.7c.06-2.59.06-8.3,0-18,2.87,5.19,6,8.16,10.82,8.11S34,36.66,37.21,33c0,8.46,0,14,0,16.74,0,.12,0,.39,0,.76-.4,4.1-4.44,6.61-4.77,6.81a11.15,11.15,0,0,1-6.23,1.5,11.09,11.09,0,0,1-5.8-1.54C20,57,16,54.51,15.67,50.46,15.64,50.09,15.64,49.81,15.64,49.7Z"/><path class="cls-1" d="M58.78,49.7c0-2.59.06-8.3,0-18,2.86,5.19,6,8.16,10.81,8.11S77.18,36.66,80.34,33c0,8.46,0,14,0,16.74a6,6,0,0,1,0,.76c-.4,4.1-4.43,6.61-4.77,6.81a11.13,11.13,0,0,1-6.22,1.5,11.1,11.1,0,0,1-5.81-1.54c-.35-.21-4.34-2.72-4.71-6.77C58.77,50.09,58.78,49.81,58.78,49.7Z"/><path class="cls-1" d="M37.21,67.9c0-2.6.06-8.3,0-18,2.87,5.19,6,8.17,10.81,8.12s7.59-3.16,10.75-6.85c0,8.46,0,14,0,16.74a4.41,4.41,0,0,1,0,.75c-.39,4.11-4.43,6.62-4.77,6.82A11.21,11.21,0,0,1,47.75,77a11.22,11.22,0,0,1-5.81-1.54c-.34-.21-4.33-2.72-4.7-6.78A6,6,0,0,1,37.21,67.9Z"/><path class="cls-2" d="M156.85,17.15c-13.78.08-25.39,11-25.36,23.87,0,15.06,10.43,25.24,25.71,25.19,14.52,0,25.37-10.67,25.27-24.74C182.39,28.31,170.56,17.08,156.85,17.15Zm-.16,37.36c-7.38-.06-12.65-5.67-12.52-13.32a12.82,12.82,0,1,1,12.52,13.32Z"/><path class="cls-3" d="M298.92,40a13.36,13.36,0,0,1,1.26-1.49c6.2-5.63,2.22-18.35-6.21-19-6.54-.49-13-.21-19.55-.43-2.47-.08-2.33,1.75-2.33,3.41,0,12.9,0,25.79,0,38.69,0,2.56.75,4,3.62,3.92,5.88-.11,11.78.22,17.64-.12,7.58-.43,12.85-4.54,13.86-10.2C308.39,48,305.83,43.33,298.92,40Zm-12-11.92c2.86.14,5.22,1.58,5.17,4.75,0,2.73-2.15,3.8-4.72,4-3.61.21-2.57-2.5-2.85-4.39C284.89,30.65,283.59,27.89,286.9,28.05Zm0,27.91a2.69,2.69,0,0,1-1.94-.71c-.73-.74-.47-1.68-.34-4.61.14-3.33-.11-4.07.58-4.69s1.43-.5,3.06-.38c2.38.16,4.53.35,6,2a5.15,5.15,0,0,1,1.13,3C295.61,53.91,291.76,56.28,286.85,56Z"/><path class="cls-2" d="M207.6,19.73c-6.14-1.49-12.39-.28-18.57-.72-2.79-.2-3.71.91-3.65,3.66.15,6.37.05,12.75.05,19.12,0,6.54.1,13.08-.05,19.62-.06,2.75.87,3.86,3.67,3.68,5.53-.36,11,.07,16.62-.63,11.49-1.45,19.27-11.18,20-21.53S218.36,22.33,207.6,19.73ZM213,43.56c-.46,6.74-6.27,11.59-13.49,11.46-2.24,0-2.22-1.36-2.23-2.89V41.86c0-3.09.18-6.2-.05-9.28s1.29-3.9,4.1-3.61C209,29.78,213.56,35.41,213,43.56Z"/><path class="cls-2" d="M267.84,59.16C264.06,48.56,260.06,38,256,27.53c-3.59-9.38-3.68-9.31-13.62-8.53-1.63.12-2.79.45-3.42,2.1q-7.87,20.31-15.77,40.6c-.16.4-.75,1.48-.31,2.27s1.55,1,6.49.83c2-.08,3.72-.2,4.88-.29L237.69,54l7.94-.14,8.27-.15,3.52,10.92c1.9.07,4,0,6.24-.09s4.1-.37,5.9-.65C269.22,63,268.6,61.28,267.84,59.16ZM247.89,47.62c-6.72.32-6.75.35-4.64-5.86l3-8.66c1.66,4.9,2.81,8.38,4,11.84C251.08,47.33,249.85,47.52,247.89,47.62Z"/><path class="cls-2" d="M116.08,19.16c-5.86-.34-11.75,0-17.62-.16-2.57-.07-3.44.87-3.4,3.4.13,6.52,0,13,0,19.56s0,13,0,19.57c0,1.38-.33,2.87,1.72,3.49,6.61,2,10.1-.29,10.1-6.89,0-8.36,0-8.36,8.42-8.64,9.31-.31,14.25-5.33,14.55-14.79C130.19,25.52,125.19,19.7,116.08,19.16ZM110,40.23a3.73,3.73,0,0,1-2.78-1.08c-.6-.7-.51-1.42-.36-4.58.2-4.05.15-4.76.84-5.35.3-.25,1.18-.86,3.17-.45,4.18-.11,6.68,1.4,6.81,5.51C117.75,38.15,115,40.51,110,40.23Z"/></svg>